<svg width="44" height="44" viewBox="0 0 44 44" fill="none" xmlns="http://www.w3.org/2000/svg">
<g filter="url(#filter0_di_245_13)">
<mask id="mask0_245_13" style="mask-type:luminance" maskUnits="userSpaceOnUse" x="3" y="3" width="38" height="38">
<path d="M40.9193 21.8928C40.9193 32.2823 32.4933 40.7084 22.1037 40.7084C11.7141 40.7084 3.28809 32.2823 3.28809 21.8928C3.28809 11.5032 11.7096 3.07715 22.1037 3.07715C32.4978 3.07715 40.9193 11.4987 40.9193 21.8928Z" fill="white"/>
</mask>
<g mask="url(#mask0_245_13)">
<path d="M44.3739 27.3911H0.176514V53.1737H44.3739V27.3911Z" fill="#2C2A7C"/>
<path d="M42.7344 -6.70496H-1.46295V27.6072H42.7344V-6.70496Z" fill="#2C2A7C"/>
<mask id="mask1_245_13" style="mask-type:luminance" maskUnits="userSpaceOnUse" x="1" y="8" width="41" height="24">
<path d="M41.4827 8.16937H1.87445V31.2768H41.4827V8.16937Z" fill="white"/>
</mask>
<g mask="url(#mask1_245_13)">
<path d="M41.4827 8.16937H1.87445V31.2768H41.4827V8.16937Z" fill="#2C2A7C"/>
<path d="M12.2955 22.3248L12.899 24.1983L14.7409 23.5047L13.6511 25.144L15.3444 26.1483L13.3809 26.3194L13.6511 28.2695L12.2955 26.8418L10.94 28.2695L11.2102 26.3194L9.24664 26.1483L10.94 25.144L9.85012 23.5047L11.692 24.1983L12.2955 22.3248Z" fill="white"/>
<path d="M33.1332 25.6978L33.4214 26.5894L34.2996 26.2607L33.7817 27.0398L34.5878 27.5172L33.6511 27.5982L33.7817 28.526L33.1332 27.8459L32.4892 28.526L32.6198 27.5982L31.683 27.5172L32.4892 27.0398L31.9713 26.2607L32.8494 26.5894L33.1332 25.6978Z" fill="white"/>
<path d="M27.9273 17.451L28.211 18.3427L29.0892 18.0095L28.5713 18.7931L29.3774 19.266L28.4452 19.347L28.5713 20.2792L27.9273 19.5992L27.2788 20.2792L27.4094 19.347L26.4727 19.266L27.2788 18.7931L26.7609 18.0095L27.6391 18.3427L27.9273 17.451Z" fill="white"/>
<path d="M33.1332 11.8039L33.4214 12.6956L34.2996 12.3668L33.7817 13.1459L34.5878 13.6233L33.6511 13.7089L33.7817 14.6366L33.1332 13.9566L32.4892 14.6366L32.6198 13.7089L31.683 13.6233L32.4892 13.1459L31.9713 12.3668L32.8494 12.6956L33.1332 11.8039Z" fill="white"/>
<path d="M37.7671 16.0594L38.0553 16.9511L38.929 16.6224L38.4111 17.4015L39.2172 17.8789L38.285 17.9599L38.4111 18.8876L37.7671 18.2076L37.1186 18.8876L37.2492 17.9599L36.317 17.8789L37.1186 17.4015L36.6007 16.6224L37.4789 16.9511L37.7671 16.0594Z" fill="white"/>
<path d="M35.2185 20.2385L35.4482 20.797L36.0471 20.842L35.5878 21.2293L35.7274 21.8102L35.2185 21.495L34.7096 21.8102L34.8537 21.2293L34.3943 20.842L34.9933 20.797L35.2185 20.2385Z" fill="white"/>
<path d="M10.5572 8.16937V11.6416H1.87445V15.1138H10.5572V18.5905H14.0339V15.1138H22.7166V11.6416H14.0339V8.16937H10.5572Z" fill="white"/>
<path d="M1.87445 8.16937V9.33128L20.3838 18.5905H22.7166V17.4241L4.20726 8.16937H1.87445Z" fill="white"/>
<path d="M20.3838 8.16937L1.87445 17.4241V18.5905H4.20726L22.7166 9.33128V8.16937H20.3838Z" fill="white"/>
<path d="M11.2553 8.16937V12.3351H1.87445V14.4202H11.2553V18.5905H13.3359V14.4202H22.7166V12.3351H13.3359V8.16937H11.2553Z" fill="#E81E25"/>
<path d="M1.87445 8.16937V8.94848L7.26964 11.6416H8.82335L1.87445 8.16937ZM21.163 8.16937L14.2141 11.6416H15.7677L22.7122 8.16937H21.1584H21.163Z" fill="#E81E25"/>
<path d="M8.82341 15.1137L1.87451 18.5859H3.42822L10.3726 15.1137H8.8189H8.82341ZM15.7678 15.1137L22.7167 18.5859V17.8068L17.3215 15.1092H15.7678V15.1137Z" fill="#E81E25"/>
</g>
</g>
</g>
<defs>
<filter id="filter0_di_245_13" x="0.288086" y="0.0771484" width="43.6312" height="43.6312" filterUnits="userSpaceOnUse" color-interpolation-filters="sRGB">
<feFlood flood-opacity="0" result="BackgroundImageFix"/>
<feColorMatrix in="SourceAlpha" type="matrix" values="0 0 0 0 0 0 0 0 0 0 0 0 0 0 0 0 0 0 127 0" result="hardAlpha"/>
<feOffset/>
<feGaussianBlur stdDeviation="1.5"/>
<feComposite in2="hardAlpha" operator="out"/>
<feColorMatrix type="matrix" values="0 0 0 0 0 0 0 0 0 0 0 0 0 0 0 0 0 0 0.5 0"/>
<feBlend mode="normal" in2="BackgroundImageFix" result="effect1_dropShadow_245_13"/>
<feBlend mode="normal" in="SourceGraphic" in2="effect1_dropShadow_245_13" result="shape"/>
<feColorMatrix in="SourceAlpha" type="matrix" values="0 0 0 0 0 0 0 0 0 0 0 0 0 0 0 0 0 0 127 0" result="hardAlpha"/>
<feOffset/>
<feGaussianBlur stdDeviation="1.5"/>
<feComposite in2="hardAlpha" operator="arithmetic" k2="-1" k3="1"/>
<feColorMatrix type="matrix" values="0 0 0 0 0 0 0 0 0 0 0 0 0 0 0 0 0 0 0.5 0"/>
<feBlend mode="normal" in2="shape" result="effect2_innerShadow_245_13"/>
</filter>
</defs>
</svg>
