<svg width="44" height="45" viewBox="0 0 44 45" fill="none" xmlns="http://www.w3.org/2000/svg">
<g filter="url(#filter0_di_245_76)">
<path d="M22 41.9024C32.4934 41.9024 41 33.3958 41 22.9024C41 12.409 32.4934 3.9024 22 3.9024C11.5066 3.9024 3 12.409 3 22.9024C3 33.3958 11.5066 41.9024 22 41.9024Z" fill="#00A1F5"/>
<path d="M31.8998 13.0033C29.6095 10.7128 26.5959 9.2874 23.3724 8.96986C20.149 8.65233 16.9151 9.46235 14.2219 11.2619C11.5288 13.0614 9.54289 15.7392 8.60272 18.8388C7.66256 21.9384 7.82627 25.2682 9.06596 28.2606C10.3057 31.2531 12.5446 33.7231 15.4013 35.2498C18.2581 36.7764 21.5558 37.2653 24.7325 36.6331C27.9093 36.0009 30.7686 34.2867 32.8231 31.7826C34.8777 29.2786 36.0004 26.1395 36 22.9005C36.0046 21.0617 35.6446 19.2402 34.9408 17.5414C34.2371 15.8426 33.2035 14.3001 31.8998 13.0033ZM31.7406 17.2627H28.6014C28.3259 15.934 27.9069 14.6391 27.3516 13.401C27.2671 13.2156 27.1798 13.0366 27.0898 12.8611C29.0312 13.8502 30.6465 15.3777 31.7424 17.2609L31.7406 17.2627ZM33.2602 22.9005C33.2606 23.8788 33.1333 24.8531 32.8815 25.7985H29.0306C29.2261 23.8714 29.2261 21.9295 29.0306 20.0024H32.8815C33.1333 20.9478 33.2606 21.9221 33.2602 22.9005ZM10.7451 22.9005C10.7447 21.9221 10.8721 20.9478 11.1239 20.0024H14.9748C14.7793 21.9295 14.7793 23.8714 14.9748 25.7985H11.1239C10.8721 24.8531 10.7447 23.8788 10.7451 22.9005ZM17.5697 22.9005C17.5689 21.9322 17.6224 20.9647 17.7298 20.0024H26.2774C26.4909 21.9285 26.4909 23.8724 26.2774 25.7985H17.7298C17.6224 24.8362 17.5689 23.8687 17.5697 22.9005ZM22.0027 11.6429C22.9582 11.6429 24.0262 12.7271 24.8612 14.5437C25.2551 15.4184 25.5663 16.3281 25.7906 17.2609H18.2148C18.4391 16.3281 18.7502 15.4184 19.1442 14.5437C19.9792 12.7271 21.0472 11.6429 22.0027 11.6429ZM16.9155 12.8602C16.8256 13.0348 16.7356 13.2138 16.6537 13.4001C16.0985 14.6382 15.6794 15.9331 15.404 17.2618H12.263C13.3585 15.3779 14.9739 13.8497 16.9155 12.8602ZM12.263 28.54H15.404C15.6796 29.869 16.0986 31.1641 16.6537 32.4026C16.7383 32.5874 16.8256 32.7673 16.9155 32.9425C14.9737 31.9527 13.3584 30.4242 12.263 28.54ZM22.0027 34.158C21.0472 34.158 19.9792 33.0738 19.1442 31.2573C18.7502 30.3825 18.4391 29.4728 18.2148 28.54H25.7906C25.5663 29.4728 25.2551 30.3825 24.8612 31.2573C24.0262 33.0738 22.9582 34.158 22.0027 34.158ZM27.0898 32.9407C27.1798 32.7661 27.2698 32.5871 27.3516 32.4008C27.9067 31.1626 28.3258 29.8678 28.6014 28.5391H31.7424C30.6468 30.423 29.0315 31.9512 27.0898 32.9407Z" fill="white"/>
</g>
<defs>
<filter id="filter0_di_245_76" x="0" y="0.902405" width="44" height="44" filterUnits="userSpaceOnUse" color-interpolation-filters="sRGB">
<feFlood flood-opacity="0" result="BackgroundImageFix"/>
<feColorMatrix in="SourceAlpha" type="matrix" values="0 0 0 0 0 0 0 0 0 0 0 0 0 0 0 0 0 0 127 0" result="hardAlpha"/>
<feOffset/>
<feGaussianBlur stdDeviation="1.5"/>
<feComposite in2="hardAlpha" operator="out"/>
<feColorMatrix type="matrix" values="0 0 0 0 0 0 0 0 0 0 0 0 0 0 0 0 0 0 0.5 0"/>
<feBlend mode="normal" in2="BackgroundImageFix" result="effect1_dropShadow_245_76"/>
<feBlend mode="normal" in="SourceGraphic" in2="effect1_dropShadow_245_76" result="shape"/>
<feColorMatrix in="SourceAlpha" type="matrix" values="0 0 0 0 0 0 0 0 0 0 0 0 0 0 0 0 0 0 127 0" result="hardAlpha"/>
<feOffset/>
<feGaussianBlur stdDeviation="1.5"/>
<feComposite in2="hardAlpha" operator="arithmetic" k2="-1" k3="1"/>
<feColorMatrix type="matrix" values="0 0 0 0 0 0 0 0 0 0 0 0 0 0 0 0 0 0 0.5 0"/>
<feBlend mode="normal" in2="shape" result="effect2_innerShadow_245_76"/>
</filter>
</defs>
</svg>
