<svg width="44" height="44" viewBox="0 0 44 44" fill="none" xmlns="http://www.w3.org/2000/svg">
<g filter="url(#filter0_di_245_111)">
<mask id="mask0_245_111" style="mask-type:luminance" maskUnits="userSpaceOnUse" x="3" y="3" width="38" height="38">
<path d="M40.9293 22.1127C40.9293 32.502 32.5036 40.9277 22.1143 40.9277C11.7251 40.9277 3.29935 32.502 3.29935 22.1127C3.29935 11.7235 11.7206 3.29773 22.1143 3.29773C32.5081 3.29773 40.9293 11.719 40.9293 22.1127Z" fill="white"/>
</mask>
<g mask="url(#mask0_245_111)">
<path d="M44.3836 27.6116H0.187653V53.3933H44.3836V27.6116Z" fill="#2C2A7C"/>
<path d="M42.7442 -6.48328H-1.45166V27.8278H42.7442V-6.48328Z" fill="#2C2A7C"/>
<path d="M-6.77438 36.1502C-6.77438 38.8027 -4.62628 40.9508 -1.97381 40.9508H44.8881C47.5405 40.9508 49.6886 38.8027 49.6886 36.1502V34.7542H-6.76989V36.1502H-6.77438Z" fill="#CE2731"/>
<path d="M44.8881 3.12219H-1.97381C-4.62628 3.12219 -6.77438 5.27029 -6.77438 7.92276V9.3188H49.6841V7.92276C49.6841 5.27029 47.536 3.12219 44.8836 3.12219H44.8881Z" fill="#CE2731"/>
<path d="M49.6841 9.31427H-6.77438V15.673H49.6841V9.31427Z" fill="white"/>
<path d="M49.6841 28.3948H-6.77438V34.7535H49.6841V28.3948Z" fill="white"/>
<path d="M49.6841 15.673H-6.77438V28.3949H49.6841V15.673Z" fill="#273879"/>
</g>
</g>
<defs>
<filter id="filter0_di_245_111" x="0.299347" y="0.297729" width="43.63" height="43.63" filterUnits="userSpaceOnUse" color-interpolation-filters="sRGB">
<feFlood flood-opacity="0" result="BackgroundImageFix"/>
<feColorMatrix in="SourceAlpha" type="matrix" values="0 0 0 0 0 0 0 0 0 0 0 0 0 0 0 0 0 0 127 0" result="hardAlpha"/>
<feOffset/>
<feGaussianBlur stdDeviation="1.5"/>
<feComposite in2="hardAlpha" operator="out"/>
<feColorMatrix type="matrix" values="0 0 0 0 0 0 0 0 0 0 0 0 0 0 0 0 0 0 0.5 0"/>
<feBlend mode="normal" in2="BackgroundImageFix" result="effect1_dropShadow_245_111"/>
<feBlend mode="normal" in="SourceGraphic" in2="effect1_dropShadow_245_111" result="shape"/>
<feColorMatrix in="SourceAlpha" type="matrix" values="0 0 0 0 0 0 0 0 0 0 0 0 0 0 0 0 0 0 127 0" result="hardAlpha"/>
<feOffset/>
<feGaussianBlur stdDeviation="1.5"/>
<feComposite in2="hardAlpha" operator="arithmetic" k2="-1" k3="1"/>
<feColorMatrix type="matrix" values="0 0 0 0 0 0 0 0 0 0 0 0 0 0 0 0 0 0 0.5 0"/>
<feBlend mode="normal" in2="shape" result="effect2_innerShadow_245_111"/>
</filter>
</defs>
</svg>
