<svg width="66" height="66" viewBox="0 0 66 66" fill="none" xmlns="http://www.w3.org/2000/svg">
<path fill-rule="evenodd" clip-rule="evenodd" d="M38.5303 35.0322C38.5303 33.0275 37.7328 31.1025 36.3138 29.6862C34.8975 28.2672 32.9725 27.4697 30.9678 27.4697C25.5063 27.4697 17.1793 27.4697 11.7178 27.4697C9.71027 27.4697 7.78802 28.2672 6.36902 29.6862C4.95277 31.1025 4.15527 33.0275 4.15527 35.0322V54.2822C4.15527 56.2897 4.95277 58.212 6.36902 59.631C7.78802 61.0472 9.71027 61.8447 11.7178 61.8447H30.9678C32.9725 61.8447 34.8975 61.0472 36.3138 59.631C37.7328 58.212 38.5303 56.2897 38.5303 54.2822V35.0322ZM34.4053 35.0322V54.2822C34.4053 55.1952 34.0423 56.0697 33.3988 56.7132C32.7525 57.3595 31.878 57.7197 30.9678 57.7197H11.7178C10.8048 57.7197 9.93027 57.3595 9.28677 56.7132C8.64052 56.0697 8.28027 55.1952 8.28027 54.2822V35.0322C8.28027 34.122 8.64052 33.2475 9.28677 32.6012C9.93027 31.9577 10.8048 31.5947 11.7178 31.5947H30.9678C31.878 31.5947 32.7525 31.9577 33.3988 32.6012C34.0423 33.2475 34.4053 34.122 34.4053 35.0322Z" fill="url(#paint0_linear_29_146)"/>
<path fill-rule="evenodd" clip-rule="evenodd" d="M44.0192 43.0375C44.4262 43.186 44.8222 43.3263 45.2044 43.4638C47.0909 44.143 49.1699 44.044 50.9849 43.1915C52.7999 42.3363 54.1997 40.7963 54.8789 38.9098C56.7297 33.77 59.5484 25.9353 61.3992 20.7955C62.0784 18.909 61.9794 16.83 61.1242 15.015C60.2717 13.2 58.7317 11.8003 56.8424 11.121C51.7054 9.27028 43.8707 6.45152 38.7309 4.60078C36.8444 3.92153 34.7627 4.02053 32.9504 4.87578C31.1354 5.72828 29.7329 7.26827 29.0537 9.15752C27.8932 12.3833 26.3477 16.676 24.9012 20.6965C24.5162 21.7663 25.0717 22.9488 26.1442 23.3338C27.2139 23.7188 28.3964 23.1633 28.7814 22.0935L32.9367 10.5545C33.2447 9.69653 33.8799 8.99528 34.7049 8.60753C35.5299 8.21978 36.4759 8.17303 37.3339 8.48378L55.4454 15.0013C56.3034 15.3093 57.0047 15.9473 57.3924 16.7723C57.7802 17.5973 57.8269 18.5433 57.5162 19.3985L50.9987 37.5128C50.6907 38.3708 50.0527 39.0693 49.2277 39.4598C48.4027 39.8475 47.4567 39.8915 46.6014 39.5835L45.4162 39.1573C44.3437 38.7723 43.1612 39.3278 42.7762 40.4003C42.3912 41.47 42.9494 42.6525 44.0192 43.0375Z" fill="url(#paint1_linear_29_146)"/>
<path d="M21.3428 47.4072C22.8616 47.4072 24.0928 46.176 24.0928 44.6572C24.0928 43.1384 22.8616 41.9072 21.3428 41.9072C19.824 41.9072 18.5928 43.1384 18.5928 44.6572C18.5928 46.176 19.824 47.4072 21.3428 47.4072Z" fill="url(#paint2_linear_29_146)"/>
<path fill-rule="evenodd" clip-rule="evenodd" d="M42.8973 21.4446C41.47 20.9303 39.8943 21.6728 39.38 23.1028C38.8658 24.5301 39.6083 26.1058 41.0355 26.6201C42.4628 27.1343 44.0413 26.3918 44.5555 24.9646C45.0698 23.5373 44.3273 21.9588 42.8973 21.4446Z" fill="url(#paint3_linear_29_146)"/>
<path d="M28.2177 40.5325C29.7364 40.5325 30.9677 39.3013 30.9677 37.7825C30.9677 36.2637 29.7364 35.0325 28.2177 35.0325C26.6989 35.0325 25.4677 36.2637 25.4677 37.7825C25.4677 39.3013 26.6989 40.5325 28.2177 40.5325Z" fill="url(#paint4_linear_29_146)"/>
<path fill-rule="evenodd" clip-rule="evenodd" d="M30.9677 51.5322C30.9677 50.0142 29.7357 48.7822 28.2177 48.7822C26.6997 48.7822 25.4677 50.0142 25.4677 51.5322C25.4677 53.0502 26.6997 54.2822 28.2177 54.2822C29.7357 54.2822 30.9677 53.0502 30.9677 51.5322Z" fill="url(#paint5_linear_29_146)"/>
<path fill-rule="evenodd" clip-rule="evenodd" d="M48.6942 33.7617C49.2085 32.3317 48.466 30.756 47.0387 30.2417C45.6115 29.7275 44.033 30.47 43.5215 31.8972C43.0072 33.3272 43.7497 34.903 45.177 35.4172C46.6042 35.9315 48.1827 35.189 48.6942 33.7617Z" fill="url(#paint6_linear_29_146)"/>
<path d="M14.4678 54.2822C15.9866 54.2822 17.2178 53.051 17.2178 51.5322C17.2178 50.0134 15.9866 48.7822 14.4678 48.7822C12.949 48.7822 11.7178 50.0134 11.7178 51.5322C11.7178 53.051 12.949 54.2822 14.4678 54.2822Z" fill="url(#paint7_linear_29_146)"/>
<path fill-rule="evenodd" clip-rule="evenodd" d="M17.2178 37.7825C17.2178 36.2645 15.9858 35.0325 14.4678 35.0325C12.9498 35.0325 11.7178 36.2645 11.7178 37.7825C11.7178 39.3005 12.9498 40.5325 14.4678 40.5325C15.9858 40.5325 17.2178 39.3005 17.2178 37.7825Z" fill="url(#paint8_linear_29_146)"/>
<path fill-rule="evenodd" clip-rule="evenodd" d="M40.4139 16.1671C40.9282 14.7398 40.1857 13.1613 38.7584 12.6471C37.3284 12.1356 35.7527 12.8753 35.2384 14.3053C34.7242 15.7326 35.4667 17.3083 36.8939 17.8226C38.3239 18.3368 39.8997 17.5943 40.4139 16.1671Z" fill="url(#paint9_linear_29_146)"/>
<defs>
<linearGradient id="paint0_linear_29_146" x1="4.74873" y1="44.6572" x2="38.5303" y2="44.6572" gradientUnits="userSpaceOnUse">
<stop stop-color="#EAC071"/>
<stop offset="0.392507" stop-color="#FFEAA4"/>
<stop offset="0.747294" stop-color="#E7CD79"/>
<stop offset="1" stop-color="#DBBF6B"/>
</linearGradient>
<linearGradient id="paint1_linear_29_146" x1="25.419" y1="24.0324" x2="61.8456" y2="24.0324" gradientUnits="userSpaceOnUse">
<stop stop-color="#EAC071"/>
<stop offset="0.392507" stop-color="#FFEAA4"/>
<stop offset="0.747294" stop-color="#E7CD79"/>
<stop offset="1" stop-color="#DBBF6B"/>
</linearGradient>
<linearGradient id="paint2_linear_29_146" x1="18.6877" y1="44.6572" x2="24.0928" y2="44.6572" gradientUnits="userSpaceOnUse">
<stop stop-color="#EAC071"/>
<stop offset="0.392507" stop-color="#FFEAA4"/>
<stop offset="0.747294" stop-color="#E7CD79"/>
<stop offset="1" stop-color="#DBBF6B"/>
</linearGradient>
<linearGradient id="paint3_linear_29_146" x1="39.3119" y1="24.0323" x2="44.7186" y2="24.0323" gradientUnits="userSpaceOnUse">
<stop stop-color="#EAC071"/>
<stop offset="0.392507" stop-color="#FFEAA4"/>
<stop offset="0.747294" stop-color="#E7CD79"/>
<stop offset="1" stop-color="#DBBF6B"/>
</linearGradient>
<linearGradient id="paint4_linear_29_146" x1="25.5626" y1="37.7825" x2="30.9677" y2="37.7825" gradientUnits="userSpaceOnUse">
<stop stop-color="#EAC071"/>
<stop offset="0.392507" stop-color="#FFEAA4"/>
<stop offset="0.747294" stop-color="#E7CD79"/>
<stop offset="1" stop-color="#DBBF6B"/>
</linearGradient>
<linearGradient id="paint5_linear_29_146" x1="25.5626" y1="51.5322" x2="30.9677" y2="51.5322" gradientUnits="userSpaceOnUse">
<stop stop-color="#EAC071"/>
<stop offset="0.392507" stop-color="#FFEAA4"/>
<stop offset="0.747294" stop-color="#E7CD79"/>
<stop offset="1" stop-color="#DBBF6B"/>
</linearGradient>
<linearGradient id="paint6_linear_29_146" x1="43.4533" y1="32.8295" x2="48.8573" y2="32.8295" gradientUnits="userSpaceOnUse">
<stop stop-color="#EAC071"/>
<stop offset="0.392507" stop-color="#FFEAA4"/>
<stop offset="0.747294" stop-color="#E7CD79"/>
<stop offset="1" stop-color="#DBBF6B"/>
</linearGradient>
<linearGradient id="paint7_linear_29_146" x1="11.8127" y1="51.5322" x2="17.2178" y2="51.5322" gradientUnits="userSpaceOnUse">
<stop stop-color="#EAC071"/>
<stop offset="0.392507" stop-color="#FFEAA4"/>
<stop offset="0.747294" stop-color="#E7CD79"/>
<stop offset="1" stop-color="#DBBF6B"/>
</linearGradient>
<linearGradient id="paint8_linear_29_146" x1="11.8127" y1="37.7825" x2="17.2178" y2="37.7825" gradientUnits="userSpaceOnUse">
<stop stop-color="#EAC071"/>
<stop offset="0.392507" stop-color="#FFEAA4"/>
<stop offset="0.747294" stop-color="#E7CD79"/>
<stop offset="1" stop-color="#DBBF6B"/>
</linearGradient>
<linearGradient id="paint9_linear_29_146" x1="35.1703" y1="15.2354" x2="40.577" y2="15.2354" gradientUnits="userSpaceOnUse">
<stop stop-color="#EAC071"/>
<stop offset="0.392507" stop-color="#FFEAA4"/>
<stop offset="0.747294" stop-color="#E7CD79"/>
<stop offset="1" stop-color="#DBBF6B"/>
</linearGradient>
</defs>
</svg>
