<svg width="49" height="56" viewBox="0 0 49 56" fill="none" xmlns="http://www.w3.org/2000/svg">
<g clip-path="url(#clip0_29_194)">
<path d="M48.7391 8.93303C48.4155 6.59101 44.8559 6.33853 41.9885 6.12957C41.2154 6.07733 40.4873 6.02509 39.9839 5.92932C36.2356 5.26764 33.2962 4.04874 29.4939 2.15945C29.0265 1.92438 28.5771 1.62836 28.1546 1.34105C26.9591 0.531356 25.7186 -0.304459 23.7501 0.122155C23.1029 0.261457 22.1051 0.879612 20.55 1.88085C19.777 2.37711 18.977 2.89079 18.5095 3.11716C16.0016 4.31864 12.7477 5.40694 10.2218 5.8945C9.67348 5.99898 8.66673 6.09475 7.58807 6.19922C4.53185 6.49524 2.4734 6.73031 1.78126 7.29623C1.04417 7.90568 0.94529 8.73278 0.882368 9.27258C0.172247 15.1668 0.846413 26.7812 2.77902 32.9279C5.24197 40.7636 13.2511 51.3854 21.8894 54.8854C23.0669 55.3643 24.0557 55.5645 24.9546 55.5645C26.7973 55.5645 28.2175 54.7113 29.9614 53.6665L30.5007 53.3444C41.3862 46.8755 48.038 35.6791 48.7481 22.6282C48.8739 20.321 49.2425 12.5288 48.7481 8.93303H48.7391ZM44.1458 15.0101C44.1818 16.5598 44.2177 18.1705 44.1458 19.729C43.5885 32.7276 39.2828 41.434 30.2041 47.9725C25.9883 51.0111 24.7748 51.0111 24.5051 50.9414C18.2399 49.2785 10.1139 39.0398 7.89369 33.2065C5.76333 27.6257 5.68242 21.5399 5.61051 15.6631C5.59254 14.1569 5.57456 12.6071 5.51164 11.0748C11.8847 10.7875 18.2129 8.76761 24.8107 4.92809C31.6423 8.81114 37.8086 10.7701 44.1098 11.0748C44.0829 12.3895 44.1098 13.7216 44.1368 15.0101H44.1458Z" fill="url(#paint0_linear_29_194)"/>
<path d="M34.438 18.7015L34.2762 18.745L20.8558 31.6131C20.4423 31.2126 19.7502 30.49 19.1659 29.8805C16.9636 27.5646 15.849 26.4502 15.1838 26.2587C14.1411 25.9539 13.1344 26.1368 12.5052 26.7462C11.9389 27.2947 11.7591 28.1131 12.0287 28.9925L12.0827 29.1753L12.2355 29.2972C12.6759 29.6716 13.6288 30.6641 14.6355 31.7176C18.0333 35.2611 19.5884 36.776 20.4873 36.924C20.676 36.9588 20.8738 36.9762 21.0715 36.9762C21.3951 36.9762 21.7187 36.9327 22.0154 36.8456L22.1772 36.8021L37.4133 22.1667L37.4672 22.0448C37.9167 20.9739 37.7998 19.9291 37.1526 19.25C36.5324 18.597 35.5436 18.4055 34.447 18.7276L34.438 18.7015Z" fill="url(#paint1_linear_29_194)"/>
</g>
<defs>
<linearGradient id="paint0_linear_29_194" x1="1.44244" y1="27.7857" x2="48.9986" y2="27.7857" gradientUnits="userSpaceOnUse">
<stop stop-color="#EAC071"/>
<stop offset="0.392507" stop-color="#FFEAA4"/>
<stop offset="0.747294" stop-color="#E7CD79"/>
<stop offset="1" stop-color="#DBBF6B"/>
</linearGradient>
<linearGradient id="paint1_linear_29_194" x1="12.3516" y1="27.7754" x2="37.7371" y2="27.7754" gradientUnits="userSpaceOnUse">
<stop stop-color="#EAC071"/>
<stop offset="0.392507" stop-color="#FFEAA4"/>
<stop offset="0.747294" stop-color="#E7CD79"/>
<stop offset="1" stop-color="#DBBF6B"/>
</linearGradient>
<clipPath id="clip0_29_194">
<rect width="48.3871" height="55.5555" fill="white" transform="translate(0.612915)"/>
</clipPath>
</defs>
</svg>
