<svg width="59" height="59" viewBox="0 0 59 59" fill="none" xmlns="http://www.w3.org/2000/svg">
<path d="M39.9346 0.999956C34.587 0.974737 29.5056 3.3311 26.0701 7.42927C22.6346 11.5275 21.2016 16.9421 22.16 22.2032C14.3668 20.806 6.56884 24.6307 2.90288 31.6483C-0.763076 38.6659 0.552009 47.2511 6.1505 52.8496C11.749 58.4481 20.3342 59.7632 27.3518 56.0972C34.3695 52.4313 38.1941 44.6334 36.7969 36.8402C43.5226 38.0292 50.3436 35.3218 54.4232 29.8441C58.5028 24.3664 59.1429 17.0557 56.0771 10.9524C53.0114 4.84909 46.7646 0.997712 39.9346 0.999956ZM29.8302 34.0333C32.8188 39.4453 31.3677 46.2317 26.4273 49.9483C21.4869 53.6649 14.5642 53.1781 10.1927 48.8065C5.82111 44.4349 5.33423 37.5123 9.05086 32.5719C12.7675 27.6315 19.5538 26.1804 24.9658 29.1689C26.2636 31.0847 27.9145 32.7356 29.8302 34.0333ZM35.1805 39.9836C35.2027 46.8846 30.8545 53.0436 24.3442 55.3329C17.8338 57.6221 10.5878 55.5399 6.28598 50.1436C1.98412 44.7474 1.56903 37.2196 5.2515 31.3831C8.93398 25.5466 15.9071 22.6804 22.6297 24.2399C22.856 24.9893 23.1314 25.723 23.454 26.4363C17.1729 24.3716 10.2958 26.8887 6.8315 32.5203C3.36721 38.1518 4.22175 45.425 8.89699 50.1003C13.5722 54.7755 20.8455 55.6301 26.477 52.1658C32.1086 48.7015 34.6256 41.8244 32.561 35.5432C33.2741 35.8652 34.0075 36.1402 34.7564 36.3666C35.0342 37.5524 35.1764 38.7658 35.1805 39.9836ZM39.9346 35.2295C31.0075 35.2295 23.7707 27.9926 23.7707 19.0655C23.7707 10.1384 31.0075 2.9016 39.9346 2.9016C48.8617 2.9016 56.0985 10.1384 56.0985 19.0655C56.0886 27.9885 48.8576 35.2195 39.9346 35.2295Z" fill="url(#paint0_linear_29_203)" stroke="url(#paint1_linear_29_203)" stroke-width="0.2"/>
<path d="M39.9344 4.80322C32.0576 4.80322 25.6721 11.1887 25.6721 19.0655C25.6721 26.9424 32.0576 33.3278 39.9344 33.3278C47.8113 33.3278 54.1967 26.9424 54.1967 19.0655C54.1878 11.1924 47.8076 4.81213 39.9344 4.80322ZM39.9344 31.4262C33.1078 31.4262 27.5738 25.8921 27.5738 19.0655C27.5738 12.2389 33.1078 6.70486 39.9344 6.70486C46.761 6.70486 52.2951 12.2389 52.2951 19.0655C52.2872 25.8889 46.7578 31.4183 39.9344 31.4262Z" fill="url(#paint2_linear_29_203)" stroke="url(#paint3_linear_29_203)" stroke-width="0.2"/>
<path fill-rule="evenodd" clip-rule="evenodd" d="M19.0163 34.2789C20.4559 34.1618 21.7243 35.2188 21.8688 36.6559C21.8688 37.181 22.2945 37.6067 22.8196 37.6067C23.3447 37.6067 23.7704 37.181 23.7704 36.6559C23.6786 34.5246 22.0795 32.762 19.9671 32.4637V31.4264C19.9671 30.9013 19.5414 30.4756 19.0163 30.4756C18.4912 30.4756 18.0655 30.9013 18.0655 31.4264V32.4637C15.9531 32.762 14.354 34.5246 14.2622 36.6559C14.4029 39.1458 16.5254 41.0561 19.0163 40.9346C20.4559 40.8175 21.7243 41.8745 21.8688 43.3117C21.7243 44.7488 20.4559 45.8058 19.0163 45.6887C17.5767 45.8058 16.3083 44.7488 16.1638 43.3117C16.1638 42.7865 15.7381 42.3608 15.213 42.3608C14.6879 42.3608 14.2622 42.7865 14.2622 43.3117C14.354 45.443 15.9531 47.2056 18.0655 47.5038V48.5412C18.0655 49.0663 18.4912 49.492 19.0163 49.492C19.5414 49.492 19.9671 49.0663 19.9671 48.5412V47.5038C22.0795 47.2056 23.6786 45.443 23.7704 43.3117C23.6297 40.8218 21.5072 38.9115 19.0163 39.033C17.5767 39.15 16.3083 38.093 16.1638 36.6559C16.3083 35.2188 17.5767 34.1618 19.0163 34.2789Z" fill="url(#paint4_linear_29_203)" stroke="url(#paint5_linear_29_203)" stroke-width="0.2"/>
<path d="M45.6393 16.2132C45.6393 14.1127 43.9365 12.4099 41.836 12.4099V11.4591C41.836 10.934 41.4104 10.5083 40.8852 10.5083C40.3601 10.5083 39.9344 10.934 39.9344 11.4591V12.4099H38.9836V11.4591C38.9836 10.934 38.5579 10.5083 38.0328 10.5083C37.5076 10.5083 37.082 10.934 37.082 11.4591V12.4099H35.1803C34.6552 12.4099 34.2295 12.8356 34.2295 13.3608C34.2295 13.8859 34.6552 14.3116 35.1803 14.3116H36.1311V18.1149H35.1803C34.6552 18.1149 34.2295 18.5406 34.2295 19.0657C34.2295 19.5908 34.6552 20.0165 35.1803 20.0165H36.1311V23.8198H35.1803C34.6552 23.8198 34.2295 24.2455 34.2295 24.7706C34.2295 25.2957 34.6552 25.7214 35.1803 25.7214H37.082V26.6722C37.082 27.1974 37.5076 27.6231 38.0328 27.6231C38.5579 27.6231 38.9836 27.1974 38.9836 26.6722V25.7214H39.9344V26.6722C39.9344 27.1974 40.3601 27.6231 40.8852 27.6231C41.4104 27.6231 41.836 27.1974 41.836 26.6722V25.7214C43.422 25.7284 44.8444 24.7465 45.4 23.261C45.9556 21.7755 45.5267 20.1011 44.3253 19.0657C45.1563 18.3505 45.6358 17.3096 45.6393 16.2132ZM43.7377 21.9181C43.7377 22.9684 42.8863 23.8198 41.836 23.8198H38.0328V20.0165H41.836C42.8863 20.0165 43.7377 20.8679 43.7377 21.9181ZM38.0328 18.1149V14.3116H41.836C42.8863 14.3116 43.7377 15.163 43.7377 16.2132C43.7377 17.2635 42.8863 18.1149 41.836 18.1149H38.0328Z" fill="url(#paint6_linear_29_203)" stroke="url(#paint7_linear_29_203)" stroke-width="0.2"/>
<path fill-rule="evenodd" clip-rule="evenodd" d="M46.5901 49.4919H37.0819C36.5568 49.4919 36.1311 49.9176 36.1311 50.4427C36.1311 50.9678 36.5568 51.3935 37.0819 51.3935H46.5901V53.2952C46.584 54.0481 47.0283 54.7319 47.7187 55.0323C48.4095 55.3445 49.2201 55.2127 49.7763 54.6976L56.8999 48.0533C57.2985 47.6945 57.527 47.184 57.5292 46.6477C57.5314 46.1113 57.307 45.599 56.9113 45.237L49.764 38.5708C49.2058 38.0684 48.4044 37.9415 47.7184 38.2469C47.0324 38.5523 46.5903 39.2328 46.5901 39.9837V41.8853H39.9344C39.4093 41.8853 38.9836 42.311 38.9836 42.8362C38.9836 43.3613 39.4093 43.787 39.9344 43.787H46.5901C47.6404 43.787 48.4918 42.9356 48.4918 41.8853L48.4794 39.9723L55.6105 46.6508L48.4918 53.2952V51.3935C48.4918 50.3433 47.6404 49.4919 46.5901 49.4919Z" fill="url(#paint8_linear_29_203)" stroke="url(#paint9_linear_29_203)" stroke-width="0.2"/>
<path fill-rule="evenodd" clip-rule="evenodd" d="M9.18677 20.4767C9.53279 20.7915 9.98354 20.9664 10.4514 20.9673C10.7205 20.9669 10.9866 20.9095 11.232 20.799C11.9212 20.4991 12.3652 19.8172 12.3606 19.0657V17.164H19.0163C19.5415 17.164 19.9672 16.7383 19.9672 16.2132C19.9672 15.6881 19.5415 15.2624 19.0163 15.2624H12.3606C11.3104 15.2624 10.459 16.1138 10.459 17.164L10.4713 19.0771L3.34018 12.3985L10.459 5.75419V7.65583C10.459 8.70607 11.3104 9.55747 12.3606 9.55747H21.8688C22.3939 9.55747 22.8196 9.13177 22.8196 8.60665C22.8196 8.08152 22.3939 7.65583 21.8688 7.65583H12.3606V5.75419C12.3615 4.99977 11.9163 4.31618 11.2259 4.01191C10.5356 3.70764 9.73068 3.84022 9.17441 4.34983L2.05087 10.9942C1.65225 11.353 1.4237 11.8635 1.42152 12.3998C1.41935 12.9361 1.64376 13.4484 2.03946 13.8105L9.18677 20.4767Z" fill="url(#paint10_linear_29_203)" stroke="url(#paint11_linear_29_203)" stroke-width="0.2"/>
<defs>
<linearGradient id="paint0_linear_29_203" x1="1.82989" y1="29.5784" x2="57.9986" y2="29.5784" gradientUnits="userSpaceOnUse">
<stop stop-color="#EAC071"/>
<stop offset="0.392507" stop-color="#FFEAA4"/>
<stop offset="0.747294" stop-color="#E7CD79"/>
<stop offset="1" stop-color="#DBBF6B"/>
</linearGradient>
<linearGradient id="paint1_linear_29_203" x1="1.82989" y1="29.5784" x2="57.9986" y2="29.5784" gradientUnits="userSpaceOnUse">
<stop stop-color="#EAC071"/>
<stop offset="0.392507" stop-color="#FFEAA4"/>
<stop offset="0.747294" stop-color="#E7CD79"/>
<stop offset="1" stop-color="#DBBF6B"/>
</linearGradient>
<linearGradient id="paint2_linear_29_203" x1="26.1646" y1="19.0655" x2="54.1967" y2="19.0655" gradientUnits="userSpaceOnUse">
<stop stop-color="#EAC071"/>
<stop offset="0.392507" stop-color="#FFEAA4"/>
<stop offset="0.747294" stop-color="#E7CD79"/>
<stop offset="1" stop-color="#DBBF6B"/>
</linearGradient>
<linearGradient id="paint3_linear_29_203" x1="26.1646" y1="19.0655" x2="54.1967" y2="19.0655" gradientUnits="userSpaceOnUse">
<stop stop-color="#EAC071"/>
<stop offset="0.392507" stop-color="#FFEAA4"/>
<stop offset="0.747294" stop-color="#E7CD79"/>
<stop offset="1" stop-color="#DBBF6B"/>
</linearGradient>
<linearGradient id="paint4_linear_29_203" x1="14.4264" y1="39.9838" x2="23.7704" y2="39.9838" gradientUnits="userSpaceOnUse">
<stop stop-color="#EAC071"/>
<stop offset="0.392507" stop-color="#FFEAA4"/>
<stop offset="0.747294" stop-color="#E7CD79"/>
<stop offset="1" stop-color="#DBBF6B"/>
</linearGradient>
<linearGradient id="paint5_linear_29_203" x1="14.4264" y1="39.9838" x2="23.7704" y2="39.9838" gradientUnits="userSpaceOnUse">
<stop stop-color="#EAC071"/>
<stop offset="0.392507" stop-color="#FFEAA4"/>
<stop offset="0.747294" stop-color="#E7CD79"/>
<stop offset="1" stop-color="#DBBF6B"/>
</linearGradient>
<linearGradient id="paint6_linear_29_203" x1="34.4265" y1="19.0657" x2="45.6401" y2="19.0657" gradientUnits="userSpaceOnUse">
<stop stop-color="#EAC071"/>
<stop offset="0.392507" stop-color="#FFEAA4"/>
<stop offset="0.747294" stop-color="#E7CD79"/>
<stop offset="1" stop-color="#DBBF6B"/>
</linearGradient>
<linearGradient id="paint7_linear_29_203" x1="34.4265" y1="19.0657" x2="45.6401" y2="19.0657" gradientUnits="userSpaceOnUse">
<stop stop-color="#EAC071"/>
<stop offset="0.392507" stop-color="#FFEAA4"/>
<stop offset="0.747294" stop-color="#E7CD79"/>
<stop offset="1" stop-color="#DBBF6B"/>
</linearGradient>
<linearGradient id="paint8_linear_29_203" x1="36.5005" y1="46.6411" x2="57.5292" y2="46.6411" gradientUnits="userSpaceOnUse">
<stop stop-color="#EAC071"/>
<stop offset="0.392507" stop-color="#FFEAA4"/>
<stop offset="0.747294" stop-color="#E7CD79"/>
<stop offset="1" stop-color="#DBBF6B"/>
</linearGradient>
<linearGradient id="paint9_linear_29_203" x1="36.5005" y1="46.6411" x2="57.5292" y2="46.6411" gradientUnits="userSpaceOnUse">
<stop stop-color="#EAC071"/>
<stop offset="0.392507" stop-color="#FFEAA4"/>
<stop offset="0.747294" stop-color="#E7CD79"/>
<stop offset="1" stop-color="#DBBF6B"/>
</linearGradient>
<linearGradient id="paint10_linear_29_203" x1="1.79093" y1="12.4088" x2="22.8196" y2="12.4088" gradientUnits="userSpaceOnUse">
<stop stop-color="#EAC071"/>
<stop offset="0.392507" stop-color="#FFEAA4"/>
<stop offset="0.747294" stop-color="#E7CD79"/>
<stop offset="1" stop-color="#DBBF6B"/>
</linearGradient>
<linearGradient id="paint11_linear_29_203" x1="1.79093" y1="12.4088" x2="22.8196" y2="12.4088" gradientUnits="userSpaceOnUse">
<stop stop-color="#EAC071"/>
<stop offset="0.392507" stop-color="#FFEAA4"/>
<stop offset="0.747294" stop-color="#E7CD79"/>
<stop offset="1" stop-color="#DBBF6B"/>
</linearGradient>
</defs>
</svg>
