<svg width="48" height="58" viewBox="0 0 48 58" fill="none" xmlns="http://www.w3.org/2000/svg">
<path d="M39.849 24.1182V3.93339C39.849 1.76445 38.0845 0 35.9155 0H3.93339C1.76445 0 0 1.76445 0 3.93339V45.8779C0 48.0468 1.76445 49.8113 3.93339 49.8113H28.0754V56.1509C28.0754 57.5361 29.5754 58.4148 30.7854 57.7236L36.2264 54.6144C42.2359 58.0485 41.9217 57.9622 42.566 57.9622C43.5663 57.9622 44.3773 57.1501 44.3773 56.1509V43.8083C50.8242 37.6148 48.2706 26.848 39.849 24.1182ZM3.93339 46.1886C3.762 46.1886 3.62264 46.0493 3.62264 45.8779V3.93339C3.62264 3.762 3.762 3.62264 3.93339 3.62264H35.9156C36.087 3.62264 36.2264 3.762 36.2264 3.93339V23.5471C29.7344 23.5471 24.4528 28.8287 24.4528 35.3207C24.4528 38.6522 25.8439 41.6645 28.0754 43.8083V46.1886H3.93339ZM40.7547 53.0296L37.125 50.9556C36.568 50.6373 35.8846 50.6373 35.3276 50.9556L31.698 53.0296V46.1881C34.5862 47.3961 37.8625 47.3977 40.7546 46.1881L40.7547 53.0296ZM36.2264 43.4717C31.7319 43.4717 28.0754 39.8152 28.0754 35.3207C28.0754 30.8263 31.7319 27.1698 36.2264 27.1698C40.7208 27.1698 44.3773 30.8263 44.3773 35.3207C44.3773 39.8152 40.7208 43.4717 36.2264 43.4717Z" fill="url(#paint0_linear_27_70)"/>
<path d="M35.3191 39.9625C34.6115 39.9625 34.5214 39.7951 31.5991 37.8468C30.7667 37.2918 30.5417 36.1672 31.0967 35.3349C31.6516 34.5025 32.7762 34.2777 33.6085 34.8325L34.8185 35.6391L37.4364 31.7123C37.9912 30.8799 39.116 30.6551 39.9482 31.2099C40.7806 31.7648 41.0056 32.8894 40.4507 33.7217L36.828 39.1557C36.4788 39.6793 35.9044 39.9625 35.3191 39.9625Z" fill="url(#paint1_linear_27_70)"/>
<path d="M26.2641 12.679H10.8679C9.8676 12.679 9.05658 11.868 9.05658 10.8677C9.05658 9.86741 9.8676 9.0564 10.8679 9.0564H26.2641C27.2645 9.0564 28.0754 9.86741 28.0754 10.8677C28.0754 11.868 27.2644 12.679 26.2641 12.679Z" fill="url(#paint2_linear_27_70)"/>
<path d="M26.2641 19.9249H10.8679C9.8676 19.9249 9.05658 19.1139 9.05658 18.1136C9.05658 17.1133 9.8676 16.3022 10.8679 16.3022H26.2641C27.2645 16.3022 28.0754 17.1133 28.0754 18.1136C28.0754 19.1139 27.2644 19.9249 26.2641 19.9249Z" fill="url(#paint3_linear_27_70)"/>
<path d="M19.9245 27.1698H10.8679C9.8676 27.1698 9.05658 26.3587 9.05658 25.3584C9.05658 24.3581 9.8676 23.5471 10.8679 23.5471H19.9245C20.9248 23.5471 21.7358 24.3581 21.7358 25.3584C21.7358 26.3587 20.9248 27.1698 19.9245 27.1698Z" fill="url(#paint4_linear_27_70)"/>
<defs>
<linearGradient id="paint0_linear_27_70" x1="0.828685" y1="28.9823" x2="48" y2="28.9823" gradientUnits="userSpaceOnUse">
<stop stop-color="#EAC071"/>
<stop offset="0.392507" stop-color="#FFEAA4"/>
<stop offset="0.747294" stop-color="#E7CD79"/>
<stop offset="1" stop-color="#DBBF6B"/>
</linearGradient>
<linearGradient id="paint1_linear_27_70" x1="30.9642" y1="35.434" x2="40.7551" y2="35.434" gradientUnits="userSpaceOnUse">
<stop stop-color="#EAC071"/>
<stop offset="0.392507" stop-color="#FFEAA4"/>
<stop offset="0.747294" stop-color="#E7CD79"/>
<stop offset="1" stop-color="#DBBF6B"/>
</linearGradient>
<linearGradient id="paint2_linear_27_70" x1="9.38493" y1="10.8677" x2="28.0754" y2="10.8677" gradientUnits="userSpaceOnUse">
<stop stop-color="#EAC071"/>
<stop offset="0.392507" stop-color="#FFEAA4"/>
<stop offset="0.747294" stop-color="#E7CD79"/>
<stop offset="1" stop-color="#DBBF6B"/>
</linearGradient>
<linearGradient id="paint3_linear_27_70" x1="9.38493" y1="18.1136" x2="28.0754" y2="18.1136" gradientUnits="userSpaceOnUse">
<stop stop-color="#EAC071"/>
<stop offset="0.392507" stop-color="#FFEAA4"/>
<stop offset="0.747294" stop-color="#E7CD79"/>
<stop offset="1" stop-color="#DBBF6B"/>
</linearGradient>
<linearGradient id="paint4_linear_27_70" x1="9.27548" y1="25.3584" x2="21.7358" y2="25.3584" gradientUnits="userSpaceOnUse">
<stop stop-color="#EAC071"/>
<stop offset="0.392507" stop-color="#FFEAA4"/>
<stop offset="0.747294" stop-color="#E7CD79"/>
<stop offset="1" stop-color="#DBBF6B"/>
</linearGradient>
</defs>
</svg>
