<svg width="60" height="60" viewBox="0 0 60 60" fill="none" xmlns="http://www.w3.org/2000/svg">
<path d="M45 17.5H46.875C46.875 17.0027 46.6775 16.5258 46.3258 16.1742C45.9743 15.8225 45.4973 15.625 45 15.625V17.5ZM15 17.5V15.625C14.5027 15.625 14.0258 15.8225 13.6742 16.1742C13.3226 16.5258 13.125 17.0027 13.125 17.5H15ZM43.125 17.5V27.5H46.875V17.5H43.125ZM43.125 27.5V47.5H46.875V27.5H43.125ZM40 50.625H20V54.375H40V50.625ZM16.875 47.5V17.5H13.125V47.5H16.875ZM15 19.375H45V15.625H15V19.375ZM15 9.375H45V5.625H15V9.375ZM6.875 17.5C6.875 13.0127 10.5127 9.375 15 9.375V5.625C8.44163 5.625 3.125 10.9416 3.125 17.5H6.875ZM15 25.625C10.5127 25.625 6.875 21.9873 6.875 17.5H3.125C3.125 24.0584 8.44163 29.375 15 29.375V25.625ZM53.125 17.5C53.125 21.9873 49.4873 25.625 45 25.625V29.375C51.5585 29.375 56.875 24.0584 56.875 17.5H53.125ZM56.875 17.5C56.875 10.9416 51.5585 5.625 45 5.625V9.375C49.4873 9.375 53.125 13.0127 53.125 17.5H56.875ZM43.125 47.5C43.125 49.226 41.726 50.625 40 50.625V54.375C43.797 54.375 46.875 51.297 46.875 47.5H43.125ZM20 50.625C18.2741 50.625 16.875 49.226 16.875 47.5H13.125C13.125 51.297 16.2031 54.375 20 54.375V50.625Z" fill="url(#paint0_linear_29_132)"/>
<path d="M36.3257 38.8258C37.058 38.0935 37.058 36.9065 36.3257 36.1743C35.5935 35.442 34.4065 35.442 33.6742 36.1743L36.3257 38.8258ZM26.3257 36.1743C25.5935 35.442 24.4064 35.442 23.6742 36.1743C22.9419 36.9065 22.9419 38.0935 23.6742 38.8258L26.3257 36.1743ZM31.875 27.5C31.875 26.4645 31.0355 25.625 30 25.625C28.9645 25.625 28.125 26.4645 28.125 27.5H31.875ZM28.125 40C28.125 41.0355 28.9645 41.875 30 41.875C31.0355 41.875 31.875 41.0355 31.875 40H28.125ZM33.6742 36.1743L30.442 39.4065L33.0935 42.058L36.3257 38.8258L33.6742 36.1743ZM29.558 39.4065L26.3257 36.1743L23.6742 38.8258L26.9065 42.058L29.558 39.4065ZM30.442 39.4065C30.1977 39.6505 29.8022 39.6505 29.558 39.4065L26.9065 42.058C28.615 43.7665 31.385 43.7665 33.0935 42.058L30.442 39.4065ZM28.125 27.5V40H31.875V27.5H28.125Z" fill="url(#paint1_linear_29_132)"/>
<defs>
<linearGradient id="paint0_linear_29_132" x1="4.05295" y1="30" x2="56.875" y2="30" gradientUnits="userSpaceOnUse">
<stop stop-color="#EAC071"/>
<stop offset="0.392507" stop-color="#FFEAA4"/>
<stop offset="0.747294" stop-color="#E7CD79"/>
<stop offset="1" stop-color="#DBBF6B"/>
</linearGradient>
<linearGradient id="paint1_linear_29_132" x1="23.3624" y1="34.4822" x2="36.8749" y2="34.4822" gradientUnits="userSpaceOnUse">
<stop stop-color="#EAC071"/>
<stop offset="0.392507" stop-color="#FFEAA4"/>
<stop offset="0.747294" stop-color="#E7CD79"/>
<stop offset="1" stop-color="#DBBF6B"/>
</linearGradient>
</defs>
</svg>
