<svg width="54" height="54" viewBox="0 0 54 54" fill="none" xmlns="http://www.w3.org/2000/svg">
<g clip-path="url(#clip0_29_198)">
<path d="M48.7174 10.5178H46.6189C47.2058 9.49521 47.5434 8.31196 47.5434 7.05055C47.5434 4.24593 45.9506 1.79779 43.3868 0.66115C40.8227 -0.475593 37.9391 -0.0115304 35.8612 1.87183L31.4312 5.88649C30.4884 4.4363 28.8549 3.47432 26.9999 3.47432C25.1421 3.47432 23.5063 4.43915 22.5643 5.89324L18.1268 1.87172C16.0488 -0.0114248 13.1649 -0.475382 10.6013 0.66136C8.03735 1.79779 6.44467 4.24614 6.44467 7.05066C6.44467 8.31206 6.78227 9.49521 7.36921 10.5179H5.28261C2.36978 10.5178 0 12.8876 0 15.8005V22.844C0 23.8164 0.788379 24.6049 1.76091 24.6049H3.52181V48.6701C3.52181 51.5829 5.89159 53.9527 8.80443 53.9527C10.5186 53.9527 43.8731 53.9527 45.1957 53.9527C48.1085 53.9527 50.4783 51.5829 50.4783 48.6701V24.6049H52.2392C53.2116 24.6049 54.0001 23.8165 54.0001 22.844V15.8005C54 12.8876 51.6302 10.5178 48.7174 10.5178ZM21.7174 50.4309H8.80432C7.83337 50.4309 7.04341 49.6409 7.04341 48.67V24.6049H21.7173L21.7174 50.4309ZM21.7174 21.0831C20.9654 21.0831 4.27918 21.0831 3.52171 21.0831V15.8005C3.52171 14.8295 4.31167 14.0395 5.28261 14.0395C5.9092 14.0395 20.9614 14.0395 21.7174 14.0395V21.0831ZM13.4337 10.5177C11.5218 10.5177 9.96638 8.96238 9.96638 7.05055C9.96638 5.63811 10.7372 4.45317 12.0285 3.88079C12.5002 3.67175 12.9856 3.56903 13.463 3.56903C14.2926 3.56903 15.0976 3.87953 15.762 4.48144L22.4229 10.5178L13.4337 10.5177ZM27 6.99613C27.831 6.99613 28.5277 7.57547 28.7118 8.35109L26.9941 9.9077L25.2861 8.35974C25.4668 7.57979 26.1658 6.99613 27 6.99613ZM28.7609 50.4309H25.2392V24.6049H28.7609V50.4309ZM28.7609 21.0831H25.2392V14.0395C26.498 14.0395 27.4898 14.0395 28.7609 14.0395V21.0831ZM38.2261 4.48154C39.2728 3.53317 40.6683 3.30873 41.9596 3.881C43.2507 4.45328 44.0217 5.63833 44.0217 7.05066C44.0217 8.96249 42.4663 10.5179 40.5544 10.5179H31.5652L38.2261 4.48154ZM46.9565 48.6701C46.9565 49.641 46.1665 50.431 45.1956 50.431H32.2826V24.6049H46.9565V48.6701ZM50.4783 21.0831C49.7206 21.0831 33.0342 21.0831 32.2826 21.0831V14.0395C33.0236 14.0395 48.0746 14.0395 48.7174 14.0395C49.6883 14.0395 50.4783 14.8295 50.4783 15.8005V21.0831Z" fill="url(#paint0_linear_29_198)"/>
</g>
<defs>
<linearGradient id="paint0_linear_29_198" x1="0.932273" y1="27" x2="54.0001" y2="27" gradientUnits="userSpaceOnUse">
<stop stop-color="#EAC071"/>
<stop offset="0.392507" stop-color="#FFEAA4"/>
<stop offset="0.747294" stop-color="#E7CD79"/>
<stop offset="1" stop-color="#DBBF6B"/>
</linearGradient>
<clipPath id="clip0_29_198">
<rect width="54" height="54" fill="white"/>
</clipPath>
</defs>
</svg>
